<svg version="1.2" baseProfile="tiny-ps" xmlns="http://www.w3.org/2000/svg" viewBox="0 0 100 62" width="100" height="62">
	<title>1920</title>
	<style>
		tspan { white-space:pre }
		.shp0 { fill: #ffffff } 
	</style>
	<g id="1920">
		<g id="VIDEO">
			<path id="Prostokąt 3 kopia 24" class="shp0" d="M1.44 41.06L60.84 41.06L60.84 60.85L1.44 60.85L1.44 41.06ZM21.23 21.24L41.05 21.24L41.05 57.89L21.23 57.89L21.23 21.24ZM39.05 41.06L98.46 41.06L98.46 60.85L39.05 60.85L39.05 41.06ZM58.85 21.24L78.64 21.24L78.64 57.89L58.85 57.89L58.85 21.24ZM20.23 21.24L79.63 21.24L79.63 41.06L20.23 41.06L20.23 21.24ZM40.02 1.45L59.81 1.45L59.81 38.1L40.02 38.1L40.02 1.45Z" />
		</g>
	</g>
</svg>