<svg version="1.2" baseProfile="tiny-ps" xmlns="http://www.w3.org/2000/svg" viewBox="0 0 572 885" width="572" height="885">
	<title>Rectangle 4 copy 2</title>
	<style>
		tspan { white-space:pre }
		.shp0 { fill: #d70105 } 
		.shp1 { fill: #ffffff;stroke: #000000;stroke-width: 5 } 
	</style>
	<path id="Rectangle 4 copy 3" class="shp0" d="M10.17 73.01L562.18 47.15C567.71 47.3 572.11 54.85 572.01 64.01L524.62 839.39C524.52 848.55 519.97 855.85 514.45 855.69L47.44 885C41.92 884.84 37.52 877.29 37.61 868.13L0 89.31C0.1 80.15 4.65 72.85 10.17 73.01Z" />
	<path id="Rectangle 4 copy 2" class="shp1" d="M36.17 33.6L534.18 0.22C539.71 0.38 544.11 7.93 544.01 17.09L512.62 811.24C512.52 820.4 507.97 827.69 502.45 827.54L60.44 862.48C54.92 862.32 50.52 854.77 50.61 845.61L26 49.89C26.1 40.74 30.65 33.44 36.17 33.6Z" />
</svg>