<svg version="1.2" baseProfile="tiny-ps" xmlns="http://www.w3.org/2000/svg" viewBox="0 0 563 739" width="563" height="739">
	<title>Rectangle 4 copy 2</title>
	<style>
		tspan { white-space:pre }
		.shp0 { fill: #d70105 } 
		.shp1 { fill: #ffffff;stroke: #000000;stroke-width: 5 } 
	</style>
	<path id="Rectangle 4 copy 3" class="shp0" d="M10.01 61L553.33 39.4C558.76 39.53 563.09 45.84 563 53.48L516.35 700.92C516.26 708.56 511.78 714.66 506.34 714.53L46.7 739C41.26 738.87 36.93 732.56 37.02 724.92L0 74.61C0.1 66.96 4.58 60.87 10.01 61Z" />
	<path id="Rectangle 4 copy 2" class="shp1" d="M35.6 28.09L525.77 0.22C531.2 0.35 535.53 6.66 535.44 14.3L504.54 677.41C504.45 685.06 499.97 691.15 494.53 691.02L59.49 720.19C54.06 720.06 49.72 713.76 49.82 706.11L25.59 41.7C25.69 34.05 30.17 27.96 35.6 28.09Z" />
</svg>