<svg version="1.2" baseProfile="tiny-ps" xmlns="http://www.w3.org/2000/svg" viewBox="0 0 705 666" width="705" height="666">
	<title>768</title>
	<style>
		tspan { white-space:pre }
		.shp0 { fill: #195ede } 
		.shp1 { fill: #ffffff;stroke: #000000;stroke-width: 5 } 
	</style>
	<g id="768">
		<g id="etapy">
			<g id="etap 1">
				<path id="Rectangle 4 copy" class="shp0" d="M11.52 65L693.77 70.85C699.19 70.85 703.58 75.22 703.58 80.61L669.11 636.68C669.11 642.07 664.71 646.43 659.29 646.43L26.38 664.47C20.96 664.47 16.56 660.1 16.56 654.71L1.71 74.76C1.71 69.37 6.1 65 11.52 65Z" />
				<path id="Rectangle 4" class="shp1" d="M24.95 1.72L679.78 51.34C685.3 51.44 689.7 55.99 689.61 61.51L646.21 648.45C646.12 653.97 641.57 658.37 636.05 658.28L55.22 645.66C49.7 645.56 45.3 641.01 45.39 635.49L14.79 11.55C14.88 6.03 19.43 1.63 24.95 1.72Z" />
			</g>
		</g>
	</g>
</svg>