<svg version="1.2" baseProfile="tiny-ps" xmlns="http://www.w3.org/2000/svg" viewBox="0 0 1301 471" width="1301" height="471">
	<title>1920</title>
	<style>
		tspan { white-space:pre }
		.shp0 { fill: #195ede } 
		.shp1 { fill: #ffffff;stroke: #000000;stroke-width: 5 } 
	</style>
	<g id="1920">
		<g id="etapy">
			<path id="Rectangle 4 copy" class="shp0" d="M66.91 74L1289.09 79.91C1294.56 79.91 1299 84.32 1299 89.76L1264.19 441.15C1264.19 446.59 1259.76 451 1254.28 451L81.91 469.21C76.44 469.21 72 464.8 72 459.36L57 83.85C57 78.41 61.44 74 66.91 74Z" />
			<path id="Rectangle 4" class="shp1" d="M11.95 1.72L1276.78 51.34C1282.3 51.44 1286.7 55.99 1286.61 61.51L1243.21 426.45C1243.12 431.97 1238.57 436.37 1233.05 436.28L43.22 425.66C37.7 425.56 33.3 421.01 33.39 415.49L1.79 11.55C1.88 6.03 6.43 1.63 11.95 1.72Z" />
		</g>
	</g>
</svg>